<?xml version="1.0" encoding="utf-8"?>
<!-- Generator: Adobe Illustrator 26.3.1, SVG Export Plug-In . SVG Version: 6.00 Build 0)  -->
<svg version="1.1" xmlns="http://www.w3.org/2000/svg" xmlns:xlink="http://www.w3.org/1999/xlink" x="0px" y="0px"
	 viewBox="0 0 595.28 841.89" style="enable-background:new 0 0 595.28 841.89;" xml:space="preserve">
<style type="text/css">
	.st0{fill:#FFFFFF;}
</style>
<g id="Capa_1">
	<g>
		<path d="M109.13,304.56c-0.15-99.69,80.25-180.72,179.23-181.08c102.75-0.37,181.1,82.31,181.96,178.89
			c0.88,99.59-79.99,182.85-181.75,182.3C188.98,484.14,108.9,402.59,109.13,304.56z M289.15,481.77
			c98.2-0.09,176.98-78.61,177.96-175.11c1.01-99.71-78.32-180.16-177.37-180.03c-97.52,0.13-176.35,77.77-177.54,175.06
			C110.98,401.03,190.6,481.45,289.15,481.77z"/>
		<path d="M203.21,329.93c0.27-10.75,0.27-10.9,11.07-10.65c21.8,0.5,38.92,10.41,52.7,26.76c11.44,13.58,17,29.22,16.34,47.03
			c-0.23,6.16-0.24,6.48-6.81,6.65c-17.28,0.45-32.69-5.02-45.96-15.95c-13.91-11.46-23.25-25.9-26.46-43.88
			C203.5,336.62,203.48,333.25,203.21,329.93z"/>
		<path d="M375.91,329.93c1.04,31.88-28.45,65.6-63.06,69.19c-4.16,0.43-8.39,0.14-12.58,0.23c-3.27,0.07-4.05-1.79-4.19-4.69
			c-1.17-23.83,8.27-43.02,25.98-58.29c13.32-11.49,28.83-17.72,46.73-17.16c7.13,0.22,7.14,0.09,7.13,7.23
			C375.91,327.6,375.91,328.77,375.91,329.93z"/>
		<path d="M298.03,244.25c-5.57-6.45-11.94-5.25-17.62,0.82c-6.71-6.86-13.12-13.32-19.35-19.93c-0.67-0.71-0.75-2.48-0.41-3.53
			c4.96-15.42,13.19-28.68,25.77-39.12c2.56-2.13,4.44-1.87,6.76,0.13c12.16,10.53,20.72,23.43,25.44,38.8
			c0.31,1-0.36,2.75-1.17,3.57C311.29,231.27,304.97,237.41,298.03,244.25z"/>
		<path d="M284.1,290.14c0,23.08,0,45.72,0,69.27c-1.05-1.46-1.77-2.24-2.24-3.14c-6.98-13.3-16.88-23.86-29.47-32.02
			c-1.51-0.98-3.22-3.4-3.04-4.94c0.94-8.33,2.43-16.61,3.78-24.9c0.51-3.09,1.99-4.51,5.57-4.37
			C267.07,290.37,275.47,290.14,284.1,290.14z"/>
		<path d="M295.1,359.77c0-23.87,0-46.47,0-69.57c9.46,0,18.71-0.05,27.97,0.1c0.76,0.01,1.86,1.24,2.2,2.13
			c3.36,8.79,4.52,17.99,4.51,27.33c0,1.32-1,3.09-2.1,3.88C310.34,336.18,306.32,340.53,295.1,359.77z"/>
		<path d="M251.52,276.5c-6.28-2.41-13.45-5.06-20.51-7.97c-0.99-0.41-2.1-2.06-2.09-3.13c0.12-14.56,3.49-28.14,12.51-39.96
			c1.43-1.88,2.66-2.69,5.05-1.43c10.61,5.58,19.84,12.66,25.83,23.28c0.59,1.05,0.7,3.18,0.04,4
			C265.47,259.84,258.41,268.22,251.52,276.5z"/>
		<path d="M326.99,277.08c-3.22-4.76-6.35-9.99-10.07-14.75c-3.64-4.66-7.89-8.85-12-13.39c6.69-10.63,15.31-19.17,26.8-24.64
			c1.97-0.94,3.31-0.93,4.8,1.04c9.06,11.92,12.73,25.55,12.86,40.27c0.01,1.12-1.33,2.8-2.45,3.29
			C340.46,271.73,333.87,274.29,326.99,277.08z"/>
		<path d="M241.19,317.4c-7.63-1.59-15.81-3.23-23.93-5.09c-0.97-0.22-2.14-1.49-2.42-2.49c-3.12-11.32-2.89-22.67,0.43-33.89
			c0.32-1.08,2.43-2.38,3.64-2.32c10.2,0.55,19.54,3.98,28.17,9.32c0.87,0.54,1.68,2.33,1.46,3.3
			C246.18,296.78,243.61,307.27,241.19,317.4z"/>
		<path d="M337.65,317.27c-1.51-7.77-3.1-15.98-4.7-24.19c-0.11-0.57-0.23-1.14-0.4-1.69c-2.5-8.03-2.72-8.6,4.96-11.49
			c7.37-2.78,15.24-4.26,22.9-6.23c2.5-0.64,3.64,0.65,4.22,3.06c2.64,10.91,3.07,21.8-0.03,32.67c-0.33,1.15-1.41,2.73-2.4,2.95
			C354.05,314.14,345.83,315.66,337.65,317.27z"/>
		<path d="M319.57,279.41c-8.84,0-16.47,0-24.47,0c0-9.2,0-18.2,0-27.97C305.64,258.86,313.11,268.04,319.57,279.41z"/>
		<path d="M284.1,279.41c-8.16,0-15.81,0-24.34,0c6.06-11.38,13.82-20.35,24.34-28.06C284.1,261.13,284.1,270.05,284.1,279.41z"/>
		<path d="M272.1,415.03c7.43-0.83,10.09-6.6,12.64-12.36c1.87-4.23,1.76-4.28,6.62-3.78c1.73,13.83-7.92,29.05-19.26,29.66
			C272.1,424.19,272.1,419.87,272.1,415.03z"/>
	</g>
</g>
<g id="Capa_2">
	<path class="st0" d="M-203,224.89"/>
</g>
</svg>
