<?xml version="1.0" encoding="utf-8"?>
<!-- Generator: Adobe Illustrator 26.3.1, SVG Export Plug-In . SVG Version: 6.00 Build 0)  -->
<svg version="1.1" id="Capa_1" xmlns="http://www.w3.org/2000/svg" xmlns:xlink="http://www.w3.org/1999/xlink" x="0px" y="0px"
	 viewBox="0 0 595.28 841.89" style="enable-background:new 0 0 595.28 841.89;" xml:space="preserve">
<style type="text/css">
	.st0{fill:none;}
</style>
<g>
	<path d="M229.81,317.51c4.97-4.75,8.93-8.99,13.39-12.62c2.64-2.15,5.94-3.7,9.17-4.89c4.45-1.64,7.05,0.71,5.78,5.25
		c-1.91,6.84-4.28,13.54-5.56,21.16c6.02-6.61,12.57-12.81,17.92-19.92c6.18-8.21,12.99-14.75,23.76-15.47
		c6.35-0.43,8.75,2.48,6.97,8.55c-1.21,4.14-3.14,8.06-4.46,12.17c-0.66,2.05-0.65,4.31-0.95,6.47c0.44,0.3,0.87,0.61,1.31,0.91
		c2.08-1.12,4.44-1.91,6.18-3.42c7.96-6.93,14.72-14.84,19.41-24.44c1.66-3.39,3.87-6.64,6.36-9.49c5.02-5.75,8.36-5.17,12.24,1.3
		c-2.64,4.4-6.04,8.33-7.41,12.88c-1.38,4.57-0.75,9.75-0.27,14.93c10.93-8.53,18.57-19.2,24.37-32.28
		c-2.51,0.4-4.31,0.68-6.13,0.97c-0.7-6.17,2.5-11.81,7.92-12.9c4.3-0.86,6.28-3.71,8.6-6.83c1.27-1.71,3.93-3.62,5.69-3.39
		c1.69,0.22,3.03,3.09,5.04,5.39c1.9-0.24,5.05-0.62,8.2-1.01c0.26,0.56,0.52,1.13,0.78,1.69c-2.55,1.83-4.86,4.31-7.69,5.36
		c-6.64,2.45-10.64,6.84-12.53,13.56c-1.49,5.28-3.49,10.41-4.94,15.69c-0.63,2.29-0.46,4.8-0.74,8.35c2.65-1.1,4.42-1.48,5.75-2.46
		c6.11-4.47,10.95-9.71,13.71-17.21c2.43-6.6,6.22-12.9,10.46-18.53c1.94-2.57,6.52-4.64,9.75-4.45c7.53,0.44,11.2,7.72,7.04,14.28
		c-3.86,6.1-9.29,11.21-13.93,16.83c-1.04,1.26-1.69,2.85-2.52,4.29c1.98,0.12,4.43,1.04,5.85,0.2c4.98-2.94,9.78-6.28,14.32-9.87
		c3.11-2.46,5.75-5.54,8.48-8.46c3.45-3.69,7.14-6.6,4.68-13.3c-2.43-6.61,2.39-15.42,8.05-17.75c1.99-0.82,5.81-1.05,6.62,0.05
		c1.27,1.74,1.74,5.42,0.71,7.21c-2.26,3.91-2.43,6.15,1.74,8.82c3.96,2.53,5.18,6.67,3.72,11.46c-0.95,3.12-1.51,6.37-1.78,9.85
		c9.14-9.75,21.13-16.66,27.36-29.08c2.12-4.23,5.43-5.38,9.46-3.41c4.19,2.05,3.21,5.3,1.72,8.51c-1.68,3.62-3.7,7.1-5.15,10.8
		c-0.84,2.16-0.86,4.64-1.44,8.12c8.69-3.03,13.75-8.18,17.25-14.91c5.19-10,12.76-17.46,23.21-21.6
		c7.43-2.95,11.79,0.42,11.07,8.47c-0.35,3.87-1.84,7.64-2.91,11.84c2.18-0.7,4.42-1.98,6.65-1.96c1.98,0.01,4.43,1.02,5.74,2.45
		c0.69,0.76-0.07,3.75-1.08,5.02c-5.91,7.51-11.38,9.35-18.35,6.63c-3.78,3.49-7.22,7.44-11.4,10.31c-4.81,3.3-9.55,2.11-12.83-1.34
		c-5.66,2.15-10.86,5.71-15.98,5.62c-5.4-0.1-10.56-3.9-12.19-10.98c-3.48,3.28-6.51,6.46-9.88,9.22
		c-4.76,3.89-9.55,7.82-14.75,11.06c-5.82,3.63-10.46,0.77-9.91-6.02c0.36-4.43,1.77-8.78,2.77-13.15c0.36-1.56,0.89-3.08,0.62-4.97
		c-4.74,5.59-9.05,11.64-14.34,16.64c-6.11,5.78-12.68,11.32-19.82,15.7c-6.9,4.23-14.55,4.7-20.77-2.23
		c-12.76,13.6-20.41,11.07-27.5,0.65c-5.79,4.51-11.66,9.01-17.44,13.63c-0.98,0.78-1.62,2.03-2.32,3.12
		c-1.16,1.82-2.1,3.79-3.37,5.53c-2.28,3.13-5.33,5.56-9.31,4.24c-2.02-0.66-4.23-2.74-5.02-4.71c-1.57-3.94-0.11-7.73,3.38-10.1
		c3.05-2.07,4.46-4.16,2.47-7.78c-3.39,3.97-6.44,8.11-10.06,11.66c-8.99,8.82-12.98,8.97-22.23,2.02
		c-4.42,3.15-8.35,6.75-12.95,9.01c-5.01,2.47-8.45-0.04-11.45-7.2c-5.55,4.78-11,9.54-16.55,14.18c-1.37,1.15-3.05,2.55-4.65,2.64
		c-2.29,0.12-5.16-0.25-6.79-1.6c-1.07-0.88-0.96-4.06-0.38-5.89c1.72-5.42,3.94-10.68,5.31-16.3
		c-8.32,7.32-14.27,16.24-19.64,25.58c-2.2,3.82-4.4,4.39-6.68,0.58c-1.93-3.23-2.44-7.3-3.63-11.15c-6.9,3.66-11.09,15.7-23.8,10.5
		c-1.06,1.19-2.47,2.98-4.08,4.57c-2.13,2.09-4.18,4.38-6.68,5.94c-6.7,4.18-14.12,1.01-14.94-6.77c-0.45-4.27,0.11-9.16,1.84-13.06
		c4.13-9.34,10.99-16.59,20.15-21.4c3.73-1.96,8.45-4.29,11.52-0.76c2.14,2.47,2.24,7.26,2.1,10.98c-0.11,2.91-1.98,5.75-3.62,10.09
		c2.69-1.66,4.62-2.41,5.96-3.75c9.03-9.05,17.89-18.28,26.95-27.3c1.38-1.37,3.53-2.84,5.28-2.79c3.1,0.09,4.9,1.92,3.09,5.44
		C233.21,310.16,231.75,313.43,229.81,317.51z M275.73,321.38c6.05-1.58,11.8-10.5,11.2-17.14
		C280.86,308.61,277.04,313.86,275.73,321.38z M172.61,343.66c5.65-1.7,8.31-6.85,6.27-11.47
		C176.6,336.36,174.61,340.01,172.61,343.66z M392.96,283.58c2.08-2.64,4.17-5.27,6.88-8.7
		C394.67,275.51,393.47,277.06,392.96,283.58z M510.71,265.19c-0.42-0.23-0.84-0.45-1.26-0.68c-2.02,3.34-4.04,6.69-6.05,10.03
		c0.58,0.31,1.16,0.63,1.74,0.94C507,272.06,510.87,269.7,510.71,265.19z"/>
	<path d="M156.35,303.45c-7.66,15.65-15.32,31.3-23,46.94c-2.79,5.68-5.45,11.43-8.54,16.94c-1.21,2.16-3.48,5.26-5.26,5.25
		c-4.16-0.02-7.66-4.82-7.36-8.89c0.79-10.79,1.75-21.57,2.65-32.35c0.13-1.6,0.29-3.19-0.07-4.86
		c-8.26,23.06-16.52,46.11-24.78,69.17c-0.63,0.14-1.25,0.28-1.88,0.42c-4.21-4.56-8.51-9.04-12.54-13.76
		c-0.56-0.65-0.04-2.57,0.45-3.71c14.46-33.44,28.98-66.85,43.5-100.26c0.33-0.76,0.58-1.89,1.17-2.14c2.22-0.96,4.8-2.6,6.77-2.1
		c1.49,0.38,3.27,3.67,3.18,5.58c-0.79,16.6-1.97,33.19-3.11,50.86c1.13-1.6,1.75-2.37,2.26-3.22c11.35-18.8,22.38-37.8,34.13-56.34
		c6.33-9.99,10.68-10.38,21.56-4.22c-3.32,7.53-7.48,14.82-9.82,22.65c-8.81,29.47-17.08,59.1-25.44,88.7
		c-1.69,6-1.87,6.27-7.62,3.65c-7.7-3.51-7.93-3.58-5.58-11.42c6.2-20.73,12.61-41.38,18.94-62.07c0.47-1.53,0.89-3.07,1.33-4.6
		C156.97,303.59,156.66,303.52,156.35,303.45z"/>
	<path d="M436.84,369.61c0.89-8.64,1.38-16.55,2.63-24.34c0.72-4.53,4.81-2.15,7.37-2.18c3.78-0.04,6.37,2.63,5.35,6.09
		c-1.23,4.18-1.06,8.03-0.76,12.23c0.39,5.45-2.64,8.01-8.25,8.18C441.39,369.65,439.6,369.61,436.84,369.61z M441.31,366.03
		c5.49,1.33,6.55-1.52,6.46-5.29c-0.09-3.86-2.66-3.74-5.72-3.33C441.79,360.36,441.56,363.08,441.31,366.03z M442.49,353.39
		c3.94,0.74,6.08-0.33,6.19-3.97c0.12-3.66-2.3-3.67-5.22-3.27C443.15,348.49,442.86,350.71,442.49,353.39z"/>
	<path d="M460.91,326.26c-0.48,2.88-0.8,5.81-1.51,8.63c-0.34,1.35-1.41,2.51-2.15,3.76c-0.6-1.44-1.8-2.93-1.7-4.32
		c0.42-5.96,1.29-11.89,1.86-17.85c0.25-2.64,0.32-5.13,4.06-4.77c3.57,0.34,7.77-0.34,8.9,4.42c0.43,1.82,0.5,4.58-0.56,5.75
		c-3.64,4.03-2.23,8.21-1.51,12.58c0.21,1.29-0.63,2.75-0.98,4.14c-0.86-1.15-2.1-2.17-2.51-3.46c-0.92-2.88-1.42-5.89-2.09-8.85
		C462.11,326.29,461.51,326.27,460.91,326.26z M461.09,323.06c4.51,0.31,6.18-1.84,5.58-5.03c-0.26-1.39-2.57-2.4-3.95-3.58
		c-0.4,0.38-0.81,0.75-1.21,1.13C461.38,317.96,461.24,320.34,461.09,323.06z"/>
	<path d="M490.92,357.21c-0.46,3.15-0.76,6.34-1.46,9.44c-0.25,1.1-1.5,1.97-2.29,2.94c-0.52-1.21-1.56-2.45-1.47-3.61
		c0.46-6.12,1.31-12.21,1.81-18.32c0.27-3.32,1.26-5.23,5.1-4.85c3.74,0.37,7.62,0.24,8.28,5.18c0.19,1.42,0.23,3.44-0.59,4.31
		c-3.96,4.17-2.66,8.72-1.71,13.42c0.24,1.16-0.52,2.53-0.82,3.8c-0.91-1.02-2.27-1.89-2.65-3.07c-0.98-3.03-1.52-6.19-2.24-9.31
		C492.22,357.16,491.57,357.18,490.92,357.21z M490.29,353.98c5.23,0.31,7.07-1.64,6.66-4.98c-0.14-1.16-2.27-2.08-3.5-3.11
		C492.47,348.39,491.5,350.89,490.29,353.98z"/>
	<path d="M472.56,337.89c2.58-8.19,5.12-16.39,7.8-24.54c0.23-0.7,1.58-1.64,2.15-1.49c0.9,0.24,2.14,1.24,2.25,2.05
		c0.95,7.41,1.74,14.85,2.39,22.29c0.07,0.74-1.07,1.59-1.65,2.38c-0.69-0.77-1.46-1.49-2.05-2.33c-0.98-1.39-1.85-2.85-2.77-4.28
		c-1.27,1.39-2.52,2.8-3.81,4.17c-0.93,0.99-1.92,1.94-2.88,2.91C473.52,338.67,473.04,338.28,472.56,337.89z"/>
	<path d="M436.98,329.45c0.75-4.42,1.11-8.94,2.35-13.21c1.24-4.3,5.05-5.04,8.94-4.28c3.69,0.73,4.51,3.67,4.03,6.91
		c-0.14,0.98-1.33,1.8-2.03,2.7c-0.55-0.83-1.13-1.64-1.66-2.49c-0.85-1.37-1.67-2.75-2.51-4.13c-1.23,1.47-3.18,2.78-3.54,4.44
		c-0.87,4.04-1.2,8.23-1.3,12.37c-0.03,1.25,1.43,2.53,2.21,3.8c1.25-1.05,2.62-1.99,3.69-3.19c0.45-0.52,0.02-1.76,0.44-2.37
		c0.48-0.7,1.44-1.07,2.2-1.58c0.46,0.74,1.28,1.45,1.33,2.22c0.32,4.59-3,8.18-7.44,8.23c-4.73,0.05-6.68-2.3-6.52-7.87
		c0.01-0.5,0.05-1,0.07-1.5C437.16,329.48,437.07,329.46,436.98,329.45z"/>
	<path d="M466.88,356.42c-6.91,0.23-7.18,4.4-6.53,9.39c1.98,0.53,4.01,1.08,6.04,1.62c-0.07,0.5-0.15,1.01-0.22,1.51
		c-3.25,0-6.49,0-10.58,0c0.84-8.33,1.71-16.98,2.57-25.52c3.76,0,7.05,0,10.34,0c0.31,0.45,0.63,0.89,0.94,1.34
		c-5.08,1.05-10.33,1.96-7.62,8.95c1.14,0.36,2.74,0.86,4.33,1.35C466.41,355.53,466.64,355.97,466.88,356.42z"/>
	<path d="M480.93,369.11c-3.29,0-6.59,0-10.41,0c0.9-8.59,1.78-17.1,2.74-26.3c2.88,0,5.49-0.11,8.08,0.07
		c0.75,0.05,1.44,0.92,2.15,1.42c-0.54,0.51-0.99,1.29-1.63,1.49c-5.48,1.69-5.49,1.66-5.34,8.01c1.46,0.35,2.97,0.72,4.48,1.08
		c0.09,0.37,0.18,0.74,0.28,1.12c-1.75,0.66-3.49,1.33-5.71,2.17c-0.13,2.34-0.28,5.08-0.43,7.74c2.35,0.56,4.24,1,6.13,1.45
		C481.15,367.93,481.04,368.52,480.93,369.11z"/>
	<path d="M494.31,312.04c3.53,0,6.6,0,11.46,0c-4.13,3.64-11.84,3.62-7.67,10.95c0.91,0.24,2.38,0.63,3.86,1.02
		c0.06,0.39,0.11,0.79,0.17,1.18c-1.68,0.54-3.36,1.07-5.33,1.7c-0.38,2.93-0.65,6.06-1.28,9.11c-0.2,0.99-1.34,1.79-2.06,2.68
		c-0.6-1.11-1.79-2.27-1.69-3.32C492.44,327.77,493.38,320.2,494.31,312.04z"/>
	<path d="M508.79,337.92c0.69-7.25,1.38-14.49,2.1-22.1c-1.39-0.42-2.85-0.87-5.23-1.6c1.26-1.12,1.91-2.2,2.69-2.3
		c2.3-0.29,4.65-0.36,6.97-0.19c1.52,0.11,2.99,0.77,4.49,1.18c-1.16,0.76-2.54,1.33-3.42,2.34c-0.87,0.99-1.59,2.39-1.75,3.68
		c-0.67,5.44-0.97,10.93-1.71,16.35c-0.19,1.36-1.54,2.56-2.35,3.84C509.97,338.72,509.38,338.32,508.79,337.92z"/>
	<path d="M490,246.03c0.04,3.81-3.12,6.86-7.08,6.65c-3.37-0.18-5.02-2.05-4.96-5.48c0.07-3.65,1.25-6.68,5.17-7.29
		C486.8,239.33,489.97,242.43,490,246.03z"/>
	<path class="st0" d="M275.73,321.38c1.31-7.52,5.13-12.76,11.2-17.14C287.53,310.88,281.78,319.79,275.73,321.38z"/>
	<path class="st0" d="M172.61,343.66c1.99-3.65,3.99-7.3,6.27-11.47C180.93,336.8,178.27,341.96,172.61,343.66z"/>
	<path class="st0" d="M392.96,283.58c0.51-6.52,1.71-8.07,6.88-8.7C397.13,278.31,395.04,280.95,392.96,283.58z"/>
	<path class="st0" d="M510.71,265.19c0.16,4.51-3.71,6.86-5.57,10.29c-0.58-0.31-1.16-0.63-1.74-0.94
		c2.02-3.34,4.04-6.69,6.05-10.03C509.87,264.74,510.29,264.97,510.71,265.19z"/>
	<path class="st0" d="M441.31,366.03c0.25-2.95,0.49-5.67,0.74-8.62c3.07-0.41,5.63-0.52,5.72,3.33
		C447.86,364.51,446.8,367.36,441.31,366.03z"/>
	<path class="st0" d="M442.49,353.39c0.36-2.69,0.66-4.9,0.98-7.24c2.92-0.4,5.33-0.39,5.22,3.27
		C448.57,353.07,446.43,354.14,442.49,353.39z"/>
	<path class="st0" d="M461.09,323.06c0.15-2.72,0.28-5.1,0.42-7.48c0.4-0.38,0.81-0.75,1.21-1.13c1.38,1.18,3.7,2.19,3.95,3.58
		C467.27,321.22,465.61,323.37,461.09,323.06z"/>
	<path class="st0" d="M490.29,353.98c1.21-3.1,2.19-5.6,3.16-8.1c1.22,1.03,3.36,1.95,3.5,3.11
		C497.35,352.34,495.52,354.29,490.29,353.98z"/>
</g>
</svg>
